<svg id="bag" xmlns="http://www.w3.org/2000/svg" width="57" height="55.914" viewBox="0 0 57 55.914">
  <g id="Group_1625" data-name="Group 1625" transform="translate(0 0)">
    <g id="Group_1624" data-name="Group 1624">
      <path id="Path_1003" data-name="Path 1003" d="M56.632,23.024a1.266,1.266,0,0,0-1.055-.352H40.456V15.991a11.956,11.956,0,1,0-23.913,0v6.682H1.422c-.422,0-.844,0-1.055.352a1.2,1.2,0,0,0-.352,1.055L5.29,52.915a8.58,8.58,0,0,0,8.3,7.033H43.41a8.651,8.651,0,0,0,8.3-7.1l5.275-28.766A1.2,1.2,0,0,0,56.632,23.024ZM19.357,15.991a9.143,9.143,0,1,1,18.286,0v6.682H19.357ZM48.9,52.493a5.627,5.627,0,0,1-5.486,4.642H13.589A5.627,5.627,0,0,1,8.1,52.493L3.11,25.486H53.889Z" transform="translate(0 -4.035)" fill="#fff"/>
      <path id="Path_1004" data-name="Path 1004" d="M281.034,220.047a1.407,1.407,0,0,0,1.407-1.407v-4.22a1.407,1.407,0,0,0-2.813,0v4.22A1.407,1.407,0,0,0,281.034,220.047Z" transform="translate(-241.984 -184.881)" fill="#fff"/>
      <path id="Path_1005" data-name="Path 1005" d="M124.3,220.047a1.407,1.407,0,0,0,1.407-1.407v-4.22a1.407,1.407,0,0,0-2.813,0v4.22A1.407,1.407,0,0,0,124.3,220.047Z" transform="translate(-106.348 -184.881)" fill="#fff"/>
    </g>
  </g>
</svg>
