<svg id="message" xmlns="http://www.w3.org/2000/svg" width="68.316" height="60.281" viewBox="0 0 68.316 60.281">
  <g id="Group_1627" data-name="Group 1627">
    <path id="Path_1007" data-name="Path 1007" d="M231.812,191.141H200.056a1,1,0,1,0,0,2h31.756a1,1,0,1,0,0-2Z" transform="translate(-172.495 -169.655)" fill="#fff"/>
    <path id="Path_1008" data-name="Path 1008" d="M231.812,248.474H200.056a1,1,0,1,0,0,2h31.756a1,1,0,1,0,0-2Z" transform="translate(-172.495 -219.338)" fill="#fff"/>
    <path id="Path_1009" data-name="Path 1009" d="M231.812,305.807H200.056a1,1,0,0,0,0,2h31.756a1,1,0,0,0,0-2Z" transform="translate(-172.495 -269.021)" fill="#fff"/>
    <path id="Path_1010" data-name="Path 1010" d="M183.044,125.549H144.93a5.827,5.827,0,0,0-5.82,5.82v23.966a5.827,5.827,0,0,0,5.82,5.82h26.714a.923.923,0,0,1,.728.353L181,172.43a1.719,1.719,0,0,0,1.356.665,1.771,1.771,0,0,0,.582-.1,1.721,1.721,0,0,0,1.17-1.645V161.057a5.847,5.847,0,0,0,4.757-5.721V131.369A5.827,5.827,0,0,0,183.044,125.549Zm3.819,29.787a3.832,3.832,0,0,1-3.769,3.817,1,1,0,0,0-.988,1V170.6l-8.162-10.334a2.913,2.913,0,0,0-2.3-1.114H144.93a3.823,3.823,0,0,1-3.819-3.819V131.369a3.823,3.823,0,0,1,3.819-3.819h38.114a3.823,3.823,0,0,1,3.819,3.819Z" transform="translate(-120.549 -112.815)" fill="#fff"/>
    <path id="Path_1011" data-name="Path 1011" d="M14.743,59.391a2.668,2.668,0,0,0-1.726.992l-6.874,8.7V60.364a1,1,0,0,0-.988-1A3.206,3.206,0,0,1,2,56.17V35.306A3.2,3.2,0,0,1,5.2,32.111H38.375a3.2,3.2,0,0,1,3.195,3.195v3.86a1,1,0,1,0,2,0v-3.86a5.2,5.2,0,0,0-5.2-5.2H5.2a5.2,5.2,0,0,0-5.2,5.2V56.17a5.221,5.221,0,0,0,4.141,5.087v8.855a1.626,1.626,0,0,0,1.106,1.554,1.675,1.675,0,0,0,.55.094,1.625,1.625,0,0,0,1.281-.628l7.51-9.508a.675.675,0,0,1,.437-.251,1,1,0,1,0-.281-1.982Z" transform="translate(0 -30.11)" fill="#fff"/>
  </g>
</svg>
