<svg id="shield_1_" data-name="shield (1)" xmlns="http://www.w3.org/2000/svg" width="52.625" height="62.751" viewBox="0 0 52.625 62.751">
  <g id="Group_1626" data-name="Group 1626">
    <path id="Path_1006" data-name="Path 1006" d="M88.438,15.862c-.074-1.769-.074-3.391-.074-5.013a1.474,1.474,0,0,0-1.474-1.474C77.084,9.375,69.564,6.5,63.224.454A1.4,1.4,0,0,0,61.245.369c-.03.027-.058.056-.085.085C54.82,6.5,47.3,9.375,37.494,9.375a1.474,1.474,0,0,0-1.474,1.474c0,1.622,0,3.244-.074,4.94-.295,16-.737,37.82,25.73,46.962h.958C89.175,53.683,88.733,31.787,88.438,15.862ZM62.192,59.8C40.665,52.134,38.748,35.473,38.821,20.728L72.513,54.494A39.738,39.738,0,0,1,62.192,59.8Zm12.681-7.151L38.9,16.673v-.811c0-1.18.074-2.433.074-3.539a42.828,42.828,0,0,0,10.985-1.769L82.1,42.7A28.9,28.9,0,0,1,74.872,52.651ZM83.2,39.675,52.976,9.448a31.848,31.848,0,0,0,9.215-5.972c6.34,5.75,13.786,8.552,23.223,8.847,0,1.18.074,2.359.074,3.539C85.636,23.53,85.784,32.008,83.2,39.675Z" transform="translate(-35.88 0)" fill="#fff"/>
  </g>
</svg>
